<?xml version="1.0" encoding="UTF-8" standalone="no"?>
<svg width="188px" height="70px" viewBox="0 0 188 70" version="1.1" xmlns="http://www.w3.org/2000/svg" xmlns:xlink="http://www.w3.org/1999/xlink">
    <!-- Generator: Sketch 43.1 (39012) - http://www.bohemiancoding.com/sketch -->
    <title>park_null_img</title>
    <desc>Created with Sketch.</desc>
    <defs>
        <polygon id="path-1" points="0 6.16357143 0 12 11.6731429 12 11.6731429 6.16357143 11.6731429 0.327142857 0 0.327142857 0 6.16357143"></polygon>
        <polygon id="path-3" points="0 6.16357143 0 12 11.6731429 12 11.6731429 6.16357143 11.6731429 0.327142857 0 0.327142857 0 6.16357143"></polygon>
    </defs>
    <g id="icon" stroke="none" stroke-width="1" fill="none" fill-rule="evenodd">
        <g id="park_null_img">
            <g id="Group-27" transform="translate(57.000000, 35.000000)">
                <rect id="Rectangle-41" fill="#333333" x="83" y="4" width="29" height="5"></rect>
                <rect id="Rectangle-44" fill="#222222" x="112" y="4" width="1" height="7"></rect>
                <g id="Page-1-Copy" transform="translate(85.000000, 3.000000)">
                    <g id="Group-3" transform="translate(0.000000, 0.244514)">
                        <mask id="mask-2" fill="white">
                            <use xlink:href="#path-1"></use>
                        </mask>
                        <g id="Clip-2"></g>
                        <path d="M0,6.16314286 C0,9.38714286 2.61371429,12.0002857 5.83714286,12.0002857 C9.06,12.0002857 11.6731429,9.38714286 11.6731429,6.16314286 C11.6731429,2.93971429 9.06,0.327142857 5.83714286,0.327142857 C2.61371429,0.327142857 0,2.93971429 0,6.16314286" id="Fill-1" fill="#000000" mask="url(#mask-2)"></path>
                    </g>
                    <path d="M2.46754286,6.40765714 C2.46754286,8.2688 3.97554286,9.7768 5.83668571,9.7768 C7.69725714,9.7768 9.20582857,8.2688 9.20582857,6.40765714 C9.20582857,4.54708571 7.69725714,3.03851429 5.83668571,3.03851429 C3.97554286,3.03851429 2.46754286,4.54708571 2.46754286,6.40765714" id="Fill-4" fill="#B7B7B6"></path>
                    <path d="M2.46754286,6.40765714 C2.46754286,8.2688 3.97554286,9.7768 5.83668571,9.7768 C7.69725714,9.7768 9.20582857,8.2688 9.20582857,6.40765714 C9.20582857,4.54708571 7.69725714,3.03851429 5.83668571,3.03851429 C3.97554286,3.03851429 2.46754286,4.54708571 2.46754286,6.40765714 Z" id="Stroke-6" stroke="#050500" stroke-width="0.938"></path>
                    <path d="M2.79005714,6.40765714 C2.79005714,8.08994286 4.15405714,9.45337143 5.83691429,9.45337143 C7.5192,9.45337143 8.8832,8.08994286 8.8832,6.40765714 C8.8832,4.72537143 7.5192,3.36137143 5.83691429,3.36137143 C4.15405714,3.36137143 2.79005714,4.72537143 2.79005714,6.40765714" id="Fill-8" fill="#B7B7B6"></path>
                    <path d="M2.79005714,6.40765714 C2.79005714,8.08994286 4.15405714,9.45337143 5.83691429,9.45337143 C7.5192,9.45337143 8.8832,8.08994286 8.8832,6.40765714 C8.8832,4.72537143 7.5192,3.36137143 5.83691429,3.36137143 C4.15405714,3.36137143 2.79005714,4.72537143 2.79005714,6.40765714 Z" id="Stroke-10" stroke="#050500" stroke-width="0.938"></path>
                    <path d="M4.58885714,6.40765714 C4.58885714,7.0968 5.14771429,7.65451429 5.83685714,7.65451429 C6.52542857,7.65451429 7.08428571,7.0968 7.08428571,6.40765714 C7.08428571,5.71851429 6.52542857,5.16022857 5.83685714,5.16022857 C5.14771429,5.16022857 4.58885714,5.71851429 4.58885714,6.40765714" id="Fill-12" fill="#000000"></path>
                    <path d="M5.45542857,4.15571429 C5.45542857,4.306 5.57714286,4.42714286 5.72628571,4.42714286 C5.876,4.42714286 5.99771429,4.306 5.99771429,4.15571429 C5.99771429,4.00657143 5.876,3.88485714 5.72628571,3.88485714 C5.57714286,3.88485714 5.45542857,4.00657143 5.45542857,4.15571429" id="Fill-14" fill="#000000"></path>
                    <path d="M4.3984,4.45188571 C4.3984,4.60217143 4.52068571,4.72331429 4.67097143,4.72331429 C4.82125714,4.72331429 4.94182857,4.60217143 4.94182857,4.45188571 C4.94182857,4.3016 4.82125714,4.18045714 4.67097143,4.18045714 C4.52068571,4.18045714 4.3984,4.3016 4.3984,4.45188571" id="Fill-16" fill="#000000"></path>
                    <path d="M3.60497143,5.24548571 C3.60497143,5.39691429 3.72725714,5.51805714 3.8764,5.51805714 C4.02668571,5.51805714 4.14782857,5.39691429 4.14782857,5.24548571 C4.14782857,5.09634286 4.02668571,4.97462857 3.8764,4.97462857 C3.72725714,4.97462857 3.60497143,5.09634286 3.60497143,5.24548571" id="Fill-18" fill="#000000"></path>
                    <path d="M3.35462857,6.37051429 C3.35462857,6.5208 3.47634286,6.64194286 3.62605714,6.64194286 C3.77634286,6.64194286 3.89805714,6.5208 3.89805714,6.37051429 C3.89805714,6.22022857 3.77634286,6.09908571 3.62605714,6.09908571 C3.47634286,6.09908571 3.35462857,6.22022857 3.35462857,6.37051429" id="Fill-20" fill="#000000"></path>
                    <path d="M3.62868571,7.4432 C3.62868571,7.59405714 3.7504,7.7152 3.90011429,7.7152 C4.0504,7.7152 4.17211429,7.59405714 4.17211429,7.4432 C4.17211429,7.29405714 4.0504,7.17234286 3.90011429,7.17234286 C3.7504,7.17234286 3.62868571,7.29405714 3.62868571,7.4432" id="Fill-22" fill="#000000"></path>
                    <path d="M4.40005714,8.23514286 C4.40005714,8.38542857 4.52177143,8.506 4.67148571,8.506 C4.82177143,8.506 4.94348571,8.38542857 4.94348571,8.23514286 C4.94348571,8.08485714 4.82177143,7.96371429 4.67148571,7.96371429 C4.52177143,7.96371429 4.40005714,8.08485714 4.40005714,8.23514286" id="Fill-24" fill="#000000"></path>
                    <path d="M5.46931429,8.5016 C5.46931429,8.65188571 5.59102857,8.77302857 5.74074286,8.77302857 C5.89102857,8.77302857 6.01274286,8.65188571 6.01274286,8.5016 C6.01274286,8.35131429 5.89102857,8.23017143 5.74074286,8.23017143 C5.59102857,8.23017143 5.46931429,8.35131429 5.46931429,8.5016" id="Fill-26" fill="#000000"></path>
                    <path d="M6.57297143,8.23514286 C6.57297143,8.38542857 6.69468571,8.506 6.8444,8.506 C6.99468571,8.506 7.1164,8.38542857 7.1164,8.23514286 C7.1164,8.08485714 6.99468571,7.96371429 6.8444,7.96371429 C6.69468571,7.96371429 6.57297143,8.08485714 6.57297143,8.23514286" id="Fill-28" fill="#000000"></path>
                    <path d="M7.3748,7.43251429 C7.3748,7.5828 7.49708571,7.70394286 7.64622857,7.70394286 C7.79651429,7.70394286 7.91765714,7.5828 7.91765714,7.43251429 C7.91765714,7.28222857 7.79651429,7.16108571 7.64622857,7.16108571 C7.49708571,7.16108571 7.3748,7.28222857 7.3748,7.43251429" id="Fill-30" fill="#000000"></path>
                    <path d="M7.72348571,6.3624 C7.72348571,6.51268571 7.8452,6.63382857 7.99434286,6.63382857 C8.14462857,6.63382857 8.26577143,6.51268571 8.26577143,6.3624 C8.26577143,6.21211429 8.14462857,6.09097143 7.99434286,6.09097143 C7.8452,6.09097143 7.72348571,6.21211429 7.72348571,6.3624" id="Fill-32" fill="#000000"></path>
                    <path d="M7.3748,5.22577143 C7.3748,5.37548571 7.49708571,5.49662857 7.64622857,5.49662857 C7.79651429,5.49662857 7.91765714,5.37548571 7.91765714,5.22577143 C7.91765714,5.07662857 7.79651429,4.95434286 7.64622857,4.95434286 C7.49708571,4.95434286 7.3748,5.07662857 7.3748,5.22577143" id="Fill-34" fill="#000000"></path>
                    <path d="M6.57297143,4.45702857 C6.57297143,4.60731429 6.69468571,4.72845714 6.8444,4.72845714 C6.99468571,4.72845714 7.1164,4.60731429 7.1164,4.45702857 C7.1164,4.30674286 6.99468571,4.1856 6.8444,4.1856 C6.69468571,4.1856 6.57297143,4.30674286 6.57297143,4.45702857" id="Fill-36" fill="#000000"></path>
                </g>
                <g id="Page-1-Copy" transform="translate(99.000000, 3.000000)">
                    <g id="Group-3" transform="translate(0.000000, 0.244514)">
                        <mask id="mask-4" fill="white">
                            <use xlink:href="#path-3"></use>
                        </mask>
                        <g id="Clip-2"></g>
                        <path d="M0,6.16314286 C0,9.38714286 2.61371429,12.0002857 5.83714286,12.0002857 C9.06,12.0002857 11.6731429,9.38714286 11.6731429,6.16314286 C11.6731429,2.93971429 9.06,0.327142857 5.83714286,0.327142857 C2.61371429,0.327142857 0,2.93971429 0,6.16314286" id="Fill-1" fill="#000000" mask="url(#mask-4)"></path>
                    </g>
                    <path d="M2.46754286,6.40765714 C2.46754286,8.2688 3.97554286,9.7768 5.83668571,9.7768 C7.69725714,9.7768 9.20582857,8.2688 9.20582857,6.40765714 C9.20582857,4.54708571 7.69725714,3.03851429 5.83668571,3.03851429 C3.97554286,3.03851429 2.46754286,4.54708571 2.46754286,6.40765714" id="Fill-4" fill="#B7B7B6"></path>
                    <path d="M2.46754286,6.40765714 C2.46754286,8.2688 3.97554286,9.7768 5.83668571,9.7768 C7.69725714,9.7768 9.20582857,8.2688 9.20582857,6.40765714 C9.20582857,4.54708571 7.69725714,3.03851429 5.83668571,3.03851429 C3.97554286,3.03851429 2.46754286,4.54708571 2.46754286,6.40765714 Z" id="Stroke-6" stroke="#050500" stroke-width="0.938"></path>
                    <path d="M2.79005714,6.40765714 C2.79005714,8.08994286 4.15405714,9.45337143 5.83691429,9.45337143 C7.5192,9.45337143 8.8832,8.08994286 8.8832,6.40765714 C8.8832,4.72537143 7.5192,3.36137143 5.83691429,3.36137143 C4.15405714,3.36137143 2.79005714,4.72537143 2.79005714,6.40765714" id="Fill-8" fill="#B7B7B6"></path>
                    <path d="M2.79005714,6.40765714 C2.79005714,8.08994286 4.15405714,9.45337143 5.83691429,9.45337143 C7.5192,9.45337143 8.8832,8.08994286 8.8832,6.40765714 C8.8832,4.72537143 7.5192,3.36137143 5.83691429,3.36137143 C4.15405714,3.36137143 2.79005714,4.72537143 2.79005714,6.40765714 Z" id="Stroke-10" stroke="#050500" stroke-width="0.938"></path>
                    <path d="M4.58885714,6.40765714 C4.58885714,7.0968 5.14771429,7.65451429 5.83685714,7.65451429 C6.52542857,7.65451429 7.08428571,7.0968 7.08428571,6.40765714 C7.08428571,5.71851429 6.52542857,5.16022857 5.83685714,5.16022857 C5.14771429,5.16022857 4.58885714,5.71851429 4.58885714,6.40765714" id="Fill-12" fill="#000000"></path>
                    <path d="M5.45542857,4.15571429 C5.45542857,4.306 5.57714286,4.42714286 5.72628571,4.42714286 C5.876,4.42714286 5.99771429,4.306 5.99771429,4.15571429 C5.99771429,4.00657143 5.876,3.88485714 5.72628571,3.88485714 C5.57714286,3.88485714 5.45542857,4.00657143 5.45542857,4.15571429" id="Fill-14" fill="#000000"></path>
                    <path d="M4.3984,4.45188571 C4.3984,4.60217143 4.52068571,4.72331429 4.67097143,4.72331429 C4.82125714,4.72331429 4.94182857,4.60217143 4.94182857,4.45188571 C4.94182857,4.3016 4.82125714,4.18045714 4.67097143,4.18045714 C4.52068571,4.18045714 4.3984,4.3016 4.3984,4.45188571" id="Fill-16" fill="#000000"></path>
                    <path d="M3.60497143,5.24548571 C3.60497143,5.39691429 3.72725714,5.51805714 3.8764,5.51805714 C4.02668571,5.51805714 4.14782857,5.39691429 4.14782857,5.24548571 C4.14782857,5.09634286 4.02668571,4.97462857 3.8764,4.97462857 C3.72725714,4.97462857 3.60497143,5.09634286 3.60497143,5.24548571" id="Fill-18" fill="#000000"></path>
                    <path d="M3.35462857,6.37051429 C3.35462857,6.5208 3.47634286,6.64194286 3.62605714,6.64194286 C3.77634286,6.64194286 3.89805714,6.5208 3.89805714,6.37051429 C3.89805714,6.22022857 3.77634286,6.09908571 3.62605714,6.09908571 C3.47634286,6.09908571 3.35462857,6.22022857 3.35462857,6.37051429" id="Fill-20" fill="#000000"></path>
                    <path d="M3.62868571,7.4432 C3.62868571,7.59405714 3.7504,7.7152 3.90011429,7.7152 C4.0504,7.7152 4.17211429,7.59405714 4.17211429,7.4432 C4.17211429,7.29405714 4.0504,7.17234286 3.90011429,7.17234286 C3.7504,7.17234286 3.62868571,7.29405714 3.62868571,7.4432" id="Fill-22" fill="#000000"></path>
                    <path d="M4.40005714,8.23514286 C4.40005714,8.38542857 4.52177143,8.506 4.67148571,8.506 C4.82177143,8.506 4.94348571,8.38542857 4.94348571,8.23514286 C4.94348571,8.08485714 4.82177143,7.96371429 4.67148571,7.96371429 C4.52177143,7.96371429 4.40005714,8.08485714 4.40005714,8.23514286" id="Fill-24" fill="#000000"></path>
                    <path d="M5.46931429,8.5016 C5.46931429,8.65188571 5.59102857,8.77302857 5.74074286,8.77302857 C5.89102857,8.77302857 6.01274286,8.65188571 6.01274286,8.5016 C6.01274286,8.35131429 5.89102857,8.23017143 5.74074286,8.23017143 C5.59102857,8.23017143 5.46931429,8.35131429 5.46931429,8.5016" id="Fill-26" fill="#000000"></path>
                    <path d="M6.57297143,8.23514286 C6.57297143,8.38542857 6.69468571,8.506 6.8444,8.506 C6.99468571,8.506 7.1164,8.38542857 7.1164,8.23514286 C7.1164,8.08485714 6.99468571,7.96371429 6.8444,7.96371429 C6.69468571,7.96371429 6.57297143,8.08485714 6.57297143,8.23514286" id="Fill-28" fill="#000000"></path>
                    <path d="M7.3748,7.43251429 C7.3748,7.5828 7.49708571,7.70394286 7.64622857,7.70394286 C7.79651429,7.70394286 7.91765714,7.5828 7.91765714,7.43251429 C7.91765714,7.28222857 7.79651429,7.16108571 7.64622857,7.16108571 C7.49708571,7.16108571 7.3748,7.28222857 7.3748,7.43251429" id="Fill-30" fill="#000000"></path>
                    <path d="M7.72348571,6.3624 C7.72348571,6.51268571 7.8452,6.63382857 7.99434286,6.63382857 C8.14462857,6.63382857 8.26577143,6.51268571 8.26577143,6.3624 C8.26577143,6.21211429 8.14462857,6.09097143 7.99434286,6.09097143 C7.8452,6.09097143 7.72348571,6.21211429 7.72348571,6.3624" id="Fill-32" fill="#000000"></path>
                    <path d="M7.3748,5.22577143 C7.3748,5.37548571 7.49708571,5.49662857 7.64622857,5.49662857 C7.79651429,5.49662857 7.91765714,5.37548571 7.91765714,5.22577143 C7.91765714,5.07662857 7.79651429,4.95434286 7.64622857,4.95434286 C7.49708571,4.95434286 7.3748,5.07662857 7.3748,5.22577143" id="Fill-34" fill="#000000"></path>
                    <path d="M6.57297143,4.45702857 C6.57297143,4.60731429 6.69468571,4.72845714 6.8444,4.72845714 C6.99468571,4.72845714 7.1164,4.60731429 7.1164,4.45702857 C7.1164,4.30674286 6.99468571,4.1856 6.8444,4.1856 C6.69468571,4.1856 6.57297143,4.30674286 6.57297143,4.45702857" id="Fill-36" fill="#000000"></path>
                </g>
                <polygon id="Rectangle-42" fill="#222222" points="0 0 113 0 113 4 83.5247 4 60.1811194 2.95654297 0 3"></polygon>
            </g>
        </g>
    </g>
</svg>