<?xml version="1.0" encoding="UTF-8" standalone="no"?>
<svg width="188px" height="70px" viewBox="0 0 188 70" version="1.1" xmlns="http://www.w3.org/2000/svg" xmlns:xlink="http://www.w3.org/1999/xlink">
    <!-- Generator: Sketch 43.1 (39012) - http://www.bohemiancoding.com/sketch -->
    <title>run_null_img</title>
    <desc>Created with Sketch.</desc>
    <defs>
        <linearGradient x1="50%" y1="0%" x2="50%" y2="100%" id="linearGradient-1">
            <stop stop-color="#DDDDDD" offset="0%"></stop>
            <stop stop-color="#CCCCCC" offset="100%"></stop>
        </linearGradient>
        <path d="M58.9872437,0.0231933594 L58.9872437,30.0252686 C58.9872437,30.0252686 65.0007324,30.0598145 67.3896484,30.0252686 C65.2001953,33.4711914 65.059082,37.989502 65.059082,37.989502 L58.9872437,37.989502 L18.8235532,37.989502 L18.8235532,36.0568848 L0.00669159838,36.0568848 L1.0066916,23.6542964 C1.0066916,23.6542964 -0.00718470213,18.7045898 22.9249442,17.9111328 C24.7398856,11.2495117 24.8155692,11.0957031 24.8155692,11.0957031 L36.0819266,9.98095703 C36.0819266,9.98095703 42.4643555,2.53076172 45.9433594,1.21484375 C50.0283203,-0.125 58.9872437,0.0231933594 58.9872437,0.0231933594 Z" id="path-2"></path>
        <linearGradient x1="50%" y1="29.942602%" x2="50%" y2="100%" id="linearGradient-4">
            <stop stop-color="#A4EACE" offset="0%"></stop>
            <stop stop-color="#366F58" offset="100%"></stop>
        </linearGradient>
        <polygon id="path-5" points="0 6.16357143 0 12 11.6731429 12 11.6731429 6.16357143 11.6731429 0.327142857 0 0.327142857 0 6.16357143"></polygon>
        <polygon id="path-7" points="0 6.16357143 0 12 11.6731429 12 11.6731429 6.16357143 11.6731429 0.327142857 0 0.327142857 0 6.16357143"></polygon>
        <polygon id="path-9" points="0 6.16357143 0 12 11.6731429 12 11.6731429 6.16357143 11.6731429 0.327142857 0 0.327142857 0 6.16357143"></polygon>
        <polygon id="path-11" points="0 6.16357143 0 12 11.6731429 12 11.6731429 6.16357143 11.6731429 0.327142857 0 0.327142857 0 6.16357143"></polygon>
        <polygon id="path-13" points="0 6.16357143 0 12 11.6731429 12 11.6731429 6.16357143 11.6731429 0.327142857 0 0.327142857 0 6.16357143"></polygon>
        <polygon id="path-15" points="53 8 53 13 42 13 46.4 8"></polygon>
        <rect id="path-16" x="49" y="18" width="4" height="6"></rect>
        <rect id="path-17" x="25" y="16" width="1" height="1"></rect>
        <linearGradient x1="50%" y1="0%" x2="50%" y2="100%" id="linearGradient-18">
            <stop stop-color="#738182" offset="0%"></stop>
            <stop stop-color="#3E6E60" offset="100%"></stop>
        </linearGradient>
        <polygon id="path-19" points="28.8181818 16 37 16 37 22 27 22"></polygon>
        <rect id="path-20" x="35" y="29" width="2" height="2"></rect>
    </defs>
    <g id="icon" stroke="none" stroke-width="1" fill="none" fill-rule="evenodd">
        <g id="run_null_img">
            <g id="Group-27" transform="translate(6.000000, 14.000000)">
                <rect id="Rectangle-26" fill="url(#linearGradient-1)" x="28" y="0" width="2" height="14"></rect>
                <polygon id="Rectangle-40" fill="#333333" points="66 35 94 35 94 36.5 89.1416016 39 66 39"></polygon>
                <polygon id="Rectangle-40-Copy" fill="#555555" points="66 33 90 33 90.1416016 35 66 35"></polygon>
                <rect id="Rectangle-43" fill="#000000" x="69" y="33" width="6" height="3"></rect>
                <rect id="Rectangle-43" fill="#000000" x="83" y="33" width="6" height="3"></rect>
                <rect id="Rectangle-41" fill="#333333" x="144" y="34" width="29" height="5"></rect>
                <rect id="Rectangle-44" fill="#222222" x="173" y="34" width="1" height="7"></rect>
                <g id="Oval-9" transform="translate(0.000000, 3.000000)">
                    <mask id="mask-3" fill="white">
                        <use xlink:href="#path-2"></use>
                    </mask>
                    <use id="Mask" fill="#53BF94" xlink:href="#path-2"></use>
                    <polygon id="Rectangle" fill="url(#linearGradient-4)" mask="url(#mask-3)" points="1 23 2 23 1 36 0 36"></polygon>
                    <path d="M13,44 C16.8291743,44 21,40.8819831 21,37.0357143 C21,33.1894455 18.0419922,28.8310547 13,29 C9.17082573,29 4.88378906,31.2368164 5,37.0357143 C5,40.8819831 9.17082573,44 13,44 Z" stroke="#5FD1A3" stroke-width="2" fill="#333333" mask="url(#mask-3)"></path>
                </g>
                <g id="Page-1" transform="translate(7.000000, 33.000000)">
                    <g id="Group-3" transform="translate(0.000000, 0.244514)">
                        <mask id="mask-6" fill="white">
                            <use xlink:href="#path-5"></use>
                        </mask>
                        <g id="Clip-2"></g>
                        <path d="M0,6.16314286 C0,9.38714286 2.61371429,12.0002857 5.83714286,12.0002857 C9.06,12.0002857 11.6731429,9.38714286 11.6731429,6.16314286 C11.6731429,2.93971429 9.06,0.327142857 5.83714286,0.327142857 C2.61371429,0.327142857 0,2.93971429 0,6.16314286" id="Fill-1" fill="#000000" mask="url(#mask-6)"></path>
                    </g>
                    <path d="M2.46754286,6.40765714 C2.46754286,8.2688 3.97554286,9.7768 5.83668571,9.7768 C7.69725714,9.7768 9.20582857,8.2688 9.20582857,6.40765714 C9.20582857,4.54708571 7.69725714,3.03851429 5.83668571,3.03851429 C3.97554286,3.03851429 2.46754286,4.54708571 2.46754286,6.40765714" id="Fill-4" fill="#B7B7B6"></path>
                    <path d="M2.46754286,6.40765714 C2.46754286,8.2688 3.97554286,9.7768 5.83668571,9.7768 C7.69725714,9.7768 9.20582857,8.2688 9.20582857,6.40765714 C9.20582857,4.54708571 7.69725714,3.03851429 5.83668571,3.03851429 C3.97554286,3.03851429 2.46754286,4.54708571 2.46754286,6.40765714 Z" id="Stroke-6" stroke="#050500" stroke-width="0.938"></path>
                    <path d="M2.79005714,6.40765714 C2.79005714,8.08994286 4.15405714,9.45337143 5.83691429,9.45337143 C7.5192,9.45337143 8.8832,8.08994286 8.8832,6.40765714 C8.8832,4.72537143 7.5192,3.36137143 5.83691429,3.36137143 C4.15405714,3.36137143 2.79005714,4.72537143 2.79005714,6.40765714" id="Fill-8" fill="#B7B7B6"></path>
                    <path d="M2.79005714,6.40765714 C2.79005714,8.08994286 4.15405714,9.45337143 5.83691429,9.45337143 C7.5192,9.45337143 8.8832,8.08994286 8.8832,6.40765714 C8.8832,4.72537143 7.5192,3.36137143 5.83691429,3.36137143 C4.15405714,3.36137143 2.79005714,4.72537143 2.79005714,6.40765714 Z" id="Stroke-10" stroke="#050500" stroke-width="0.938"></path>
                    <path d="M4.58885714,6.40765714 C4.58885714,7.0968 5.14771429,7.65451429 5.83685714,7.65451429 C6.52542857,7.65451429 7.08428571,7.0968 7.08428571,6.40765714 C7.08428571,5.71851429 6.52542857,5.16022857 5.83685714,5.16022857 C5.14771429,5.16022857 4.58885714,5.71851429 4.58885714,6.40765714" id="Fill-12" fill="#000000"></path>
                    <path d="M5.45542857,4.15571429 C5.45542857,4.306 5.57714286,4.42714286 5.72628571,4.42714286 C5.876,4.42714286 5.99771429,4.306 5.99771429,4.15571429 C5.99771429,4.00657143 5.876,3.88485714 5.72628571,3.88485714 C5.57714286,3.88485714 5.45542857,4.00657143 5.45542857,4.15571429" id="Fill-14" fill="#000000"></path>
                    <path d="M4.3984,4.45188571 C4.3984,4.60217143 4.52068571,4.72331429 4.67097143,4.72331429 C4.82125714,4.72331429 4.94182857,4.60217143 4.94182857,4.45188571 C4.94182857,4.3016 4.82125714,4.18045714 4.67097143,4.18045714 C4.52068571,4.18045714 4.3984,4.3016 4.3984,4.45188571" id="Fill-16" fill="#000000"></path>
                    <path d="M3.60497143,5.24548571 C3.60497143,5.39691429 3.72725714,5.51805714 3.8764,5.51805714 C4.02668571,5.51805714 4.14782857,5.39691429 4.14782857,5.24548571 C4.14782857,5.09634286 4.02668571,4.97462857 3.8764,4.97462857 C3.72725714,4.97462857 3.60497143,5.09634286 3.60497143,5.24548571" id="Fill-18" fill="#000000"></path>
                    <path d="M3.35462857,6.37051429 C3.35462857,6.5208 3.47634286,6.64194286 3.62605714,6.64194286 C3.77634286,6.64194286 3.89805714,6.5208 3.89805714,6.37051429 C3.89805714,6.22022857 3.77634286,6.09908571 3.62605714,6.09908571 C3.47634286,6.09908571 3.35462857,6.22022857 3.35462857,6.37051429" id="Fill-20" fill="#000000"></path>
                    <path d="M3.62868571,7.4432 C3.62868571,7.59405714 3.7504,7.7152 3.90011429,7.7152 C4.0504,7.7152 4.17211429,7.59405714 4.17211429,7.4432 C4.17211429,7.29405714 4.0504,7.17234286 3.90011429,7.17234286 C3.7504,7.17234286 3.62868571,7.29405714 3.62868571,7.4432" id="Fill-22" fill="#000000"></path>
                    <path d="M4.40005714,8.23514286 C4.40005714,8.38542857 4.52177143,8.506 4.67148571,8.506 C4.82177143,8.506 4.94348571,8.38542857 4.94348571,8.23514286 C4.94348571,8.08485714 4.82177143,7.96371429 4.67148571,7.96371429 C4.52177143,7.96371429 4.40005714,8.08485714 4.40005714,8.23514286" id="Fill-24" fill="#000000"></path>
                    <path d="M5.46931429,8.5016 C5.46931429,8.65188571 5.59102857,8.77302857 5.74074286,8.77302857 C5.89102857,8.77302857 6.01274286,8.65188571 6.01274286,8.5016 C6.01274286,8.35131429 5.89102857,8.23017143 5.74074286,8.23017143 C5.59102857,8.23017143 5.46931429,8.35131429 5.46931429,8.5016" id="Fill-26" fill="#000000"></path>
                    <path d="M6.57297143,8.23514286 C6.57297143,8.38542857 6.69468571,8.506 6.8444,8.506 C6.99468571,8.506 7.1164,8.38542857 7.1164,8.23514286 C7.1164,8.08485714 6.99468571,7.96371429 6.8444,7.96371429 C6.69468571,7.96371429 6.57297143,8.08485714 6.57297143,8.23514286" id="Fill-28" fill="#000000"></path>
                    <path d="M7.3748,7.43251429 C7.3748,7.5828 7.49708571,7.70394286 7.64622857,7.70394286 C7.79651429,7.70394286 7.91765714,7.5828 7.91765714,7.43251429 C7.91765714,7.28222857 7.79651429,7.16108571 7.64622857,7.16108571 C7.49708571,7.16108571 7.3748,7.28222857 7.3748,7.43251429" id="Fill-30" fill="#000000"></path>
                    <path d="M7.72348571,6.3624 C7.72348571,6.51268571 7.8452,6.63382857 7.99434286,6.63382857 C8.14462857,6.63382857 8.26577143,6.51268571 8.26577143,6.3624 C8.26577143,6.21211429 8.14462857,6.09097143 7.99434286,6.09097143 C7.8452,6.09097143 7.72348571,6.21211429 7.72348571,6.3624" id="Fill-32" fill="#000000"></path>
                    <path d="M7.3748,5.22577143 C7.3748,5.37548571 7.49708571,5.49662857 7.64622857,5.49662857 C7.79651429,5.49662857 7.91765714,5.37548571 7.91765714,5.22577143 C7.91765714,5.07662857 7.79651429,4.95434286 7.64622857,4.95434286 C7.49708571,4.95434286 7.3748,5.07662857 7.3748,5.22577143" id="Fill-34" fill="#000000"></path>
                    <path d="M6.57297143,4.45702857 C6.57297143,4.60731429 6.69468571,4.72845714 6.8444,4.72845714 C6.99468571,4.72845714 7.1164,4.60731429 7.1164,4.45702857 C7.1164,4.30674286 6.99468571,4.1856 6.8444,4.1856 C6.69468571,4.1856 6.57297143,4.30674286 6.57297143,4.45702857" id="Fill-36" fill="#000000"></path>
                </g>
                <g id="Page-1-Copy" transform="translate(66.000000, 33.000000)">
                    <g id="Group-3" transform="translate(0.000000, 0.244514)">
                        <mask id="mask-8" fill="white">
                            <use xlink:href="#path-7"></use>
                        </mask>
                        <g id="Clip-2"></g>
                        <path d="M0,6.16314286 C0,9.38714286 2.61371429,12.0002857 5.83714286,12.0002857 C9.06,12.0002857 11.6731429,9.38714286 11.6731429,6.16314286 C11.6731429,2.93971429 9.06,0.327142857 5.83714286,0.327142857 C2.61371429,0.327142857 0,2.93971429 0,6.16314286" id="Fill-1" fill="#000000" mask="url(#mask-8)"></path>
                    </g>
                    <path d="M2.46754286,6.40765714 C2.46754286,8.2688 3.97554286,9.7768 5.83668571,9.7768 C7.69725714,9.7768 9.20582857,8.2688 9.20582857,6.40765714 C9.20582857,4.54708571 7.69725714,3.03851429 5.83668571,3.03851429 C3.97554286,3.03851429 2.46754286,4.54708571 2.46754286,6.40765714" id="Fill-4" fill="#B7B7B6"></path>
                    <path d="M2.46754286,6.40765714 C2.46754286,8.2688 3.97554286,9.7768 5.83668571,9.7768 C7.69725714,9.7768 9.20582857,8.2688 9.20582857,6.40765714 C9.20582857,4.54708571 7.69725714,3.03851429 5.83668571,3.03851429 C3.97554286,3.03851429 2.46754286,4.54708571 2.46754286,6.40765714 Z" id="Stroke-6" stroke="#050500" stroke-width="0.938"></path>
                    <path d="M2.79005714,6.40765714 C2.79005714,8.08994286 4.15405714,9.45337143 5.83691429,9.45337143 C7.5192,9.45337143 8.8832,8.08994286 8.8832,6.40765714 C8.8832,4.72537143 7.5192,3.36137143 5.83691429,3.36137143 C4.15405714,3.36137143 2.79005714,4.72537143 2.79005714,6.40765714" id="Fill-8" fill="#B7B7B6"></path>
                    <path d="M2.79005714,6.40765714 C2.79005714,8.08994286 4.15405714,9.45337143 5.83691429,9.45337143 C7.5192,9.45337143 8.8832,8.08994286 8.8832,6.40765714 C8.8832,4.72537143 7.5192,3.36137143 5.83691429,3.36137143 C4.15405714,3.36137143 2.79005714,4.72537143 2.79005714,6.40765714 Z" id="Stroke-10" stroke="#050500" stroke-width="0.938"></path>
                    <path d="M4.58885714,6.40765714 C4.58885714,7.0968 5.14771429,7.65451429 5.83685714,7.65451429 C6.52542857,7.65451429 7.08428571,7.0968 7.08428571,6.40765714 C7.08428571,5.71851429 6.52542857,5.16022857 5.83685714,5.16022857 C5.14771429,5.16022857 4.58885714,5.71851429 4.58885714,6.40765714" id="Fill-12" fill="#000000"></path>
                    <path d="M5.45542857,4.15571429 C5.45542857,4.306 5.57714286,4.42714286 5.72628571,4.42714286 C5.876,4.42714286 5.99771429,4.306 5.99771429,4.15571429 C5.99771429,4.00657143 5.876,3.88485714 5.72628571,3.88485714 C5.57714286,3.88485714 5.45542857,4.00657143 5.45542857,4.15571429" id="Fill-14" fill="#000000"></path>
                    <path d="M4.3984,4.45188571 C4.3984,4.60217143 4.52068571,4.72331429 4.67097143,4.72331429 C4.82125714,4.72331429 4.94182857,4.60217143 4.94182857,4.45188571 C4.94182857,4.3016 4.82125714,4.18045714 4.67097143,4.18045714 C4.52068571,4.18045714 4.3984,4.3016 4.3984,4.45188571" id="Fill-16" fill="#000000"></path>
                    <path d="M3.60497143,5.24548571 C3.60497143,5.39691429 3.72725714,5.51805714 3.8764,5.51805714 C4.02668571,5.51805714 4.14782857,5.39691429 4.14782857,5.24548571 C4.14782857,5.09634286 4.02668571,4.97462857 3.8764,4.97462857 C3.72725714,4.97462857 3.60497143,5.09634286 3.60497143,5.24548571" id="Fill-18" fill="#000000"></path>
                    <path d="M3.35462857,6.37051429 C3.35462857,6.5208 3.47634286,6.64194286 3.62605714,6.64194286 C3.77634286,6.64194286 3.89805714,6.5208 3.89805714,6.37051429 C3.89805714,6.22022857 3.77634286,6.09908571 3.62605714,6.09908571 C3.47634286,6.09908571 3.35462857,6.22022857 3.35462857,6.37051429" id="Fill-20" fill="#000000"></path>
                    <path d="M3.62868571,7.4432 C3.62868571,7.59405714 3.7504,7.7152 3.90011429,7.7152 C4.0504,7.7152 4.17211429,7.59405714 4.17211429,7.4432 C4.17211429,7.29405714 4.0504,7.17234286 3.90011429,7.17234286 C3.7504,7.17234286 3.62868571,7.29405714 3.62868571,7.4432" id="Fill-22" fill="#000000"></path>
                    <path d="M4.40005714,8.23514286 C4.40005714,8.38542857 4.52177143,8.506 4.67148571,8.506 C4.82177143,8.506 4.94348571,8.38542857 4.94348571,8.23514286 C4.94348571,8.08485714 4.82177143,7.96371429 4.67148571,7.96371429 C4.52177143,7.96371429 4.40005714,8.08485714 4.40005714,8.23514286" id="Fill-24" fill="#000000"></path>
                    <path d="M5.46931429,8.5016 C5.46931429,8.65188571 5.59102857,8.77302857 5.74074286,8.77302857 C5.89102857,8.77302857 6.01274286,8.65188571 6.01274286,8.5016 C6.01274286,8.35131429 5.89102857,8.23017143 5.74074286,8.23017143 C5.59102857,8.23017143 5.46931429,8.35131429 5.46931429,8.5016" id="Fill-26" fill="#000000"></path>
                    <path d="M6.57297143,8.23514286 C6.57297143,8.38542857 6.69468571,8.506 6.8444,8.506 C6.99468571,8.506 7.1164,8.38542857 7.1164,8.23514286 C7.1164,8.08485714 6.99468571,7.96371429 6.8444,7.96371429 C6.69468571,7.96371429 6.57297143,8.08485714 6.57297143,8.23514286" id="Fill-28" fill="#000000"></path>
                    <path d="M7.3748,7.43251429 C7.3748,7.5828 7.49708571,7.70394286 7.64622857,7.70394286 C7.79651429,7.70394286 7.91765714,7.5828 7.91765714,7.43251429 C7.91765714,7.28222857 7.79651429,7.16108571 7.64622857,7.16108571 C7.49708571,7.16108571 7.3748,7.28222857 7.3748,7.43251429" id="Fill-30" fill="#000000"></path>
                    <path d="M7.72348571,6.3624 C7.72348571,6.51268571 7.8452,6.63382857 7.99434286,6.63382857 C8.14462857,6.63382857 8.26577143,6.51268571 8.26577143,6.3624 C8.26577143,6.21211429 8.14462857,6.09097143 7.99434286,6.09097143 C7.8452,6.09097143 7.72348571,6.21211429 7.72348571,6.3624" id="Fill-32" fill="#000000"></path>
                    <path d="M7.3748,5.22577143 C7.3748,5.37548571 7.49708571,5.49662857 7.64622857,5.49662857 C7.79651429,5.49662857 7.91765714,5.37548571 7.91765714,5.22577143 C7.91765714,5.07662857 7.79651429,4.95434286 7.64622857,4.95434286 C7.49708571,4.95434286 7.3748,5.07662857 7.3748,5.22577143" id="Fill-34" fill="#000000"></path>
                    <path d="M6.57297143,4.45702857 C6.57297143,4.60731429 6.69468571,4.72845714 6.8444,4.72845714 C6.99468571,4.72845714 7.1164,4.60731429 7.1164,4.45702857 C7.1164,4.30674286 6.99468571,4.1856 6.8444,4.1856 C6.69468571,4.1856 6.57297143,4.30674286 6.57297143,4.45702857" id="Fill-36" fill="#000000"></path>
                </g>
                <g id="Page-1-Copy" transform="translate(80.000000, 33.000000)">
                    <g id="Group-3" transform="translate(0.000000, 0.244514)">
                        <mask id="mask-10" fill="white">
                            <use xlink:href="#path-9"></use>
                        </mask>
                        <g id="Clip-2"></g>
                        <path d="M0,6.16314286 C0,9.38714286 2.61371429,12.0002857 5.83714286,12.0002857 C9.06,12.0002857 11.6731429,9.38714286 11.6731429,6.16314286 C11.6731429,2.93971429 9.06,0.327142857 5.83714286,0.327142857 C2.61371429,0.327142857 0,2.93971429 0,6.16314286" id="Fill-1" fill="#000000" mask="url(#mask-10)"></path>
                    </g>
                    <path d="M2.46754286,6.40765714 C2.46754286,8.2688 3.97554286,9.7768 5.83668571,9.7768 C7.69725714,9.7768 9.20582857,8.2688 9.20582857,6.40765714 C9.20582857,4.54708571 7.69725714,3.03851429 5.83668571,3.03851429 C3.97554286,3.03851429 2.46754286,4.54708571 2.46754286,6.40765714" id="Fill-4" fill="#B7B7B6"></path>
                    <path d="M2.46754286,6.40765714 C2.46754286,8.2688 3.97554286,9.7768 5.83668571,9.7768 C7.69725714,9.7768 9.20582857,8.2688 9.20582857,6.40765714 C9.20582857,4.54708571 7.69725714,3.03851429 5.83668571,3.03851429 C3.97554286,3.03851429 2.46754286,4.54708571 2.46754286,6.40765714 Z" id="Stroke-6" stroke="#050500" stroke-width="0.938"></path>
                    <path d="M2.79005714,6.40765714 C2.79005714,8.08994286 4.15405714,9.45337143 5.83691429,9.45337143 C7.5192,9.45337143 8.8832,8.08994286 8.8832,6.40765714 C8.8832,4.72537143 7.5192,3.36137143 5.83691429,3.36137143 C4.15405714,3.36137143 2.79005714,4.72537143 2.79005714,6.40765714" id="Fill-8" fill="#B7B7B6"></path>
                    <path d="M2.79005714,6.40765714 C2.79005714,8.08994286 4.15405714,9.45337143 5.83691429,9.45337143 C7.5192,9.45337143 8.8832,8.08994286 8.8832,6.40765714 C8.8832,4.72537143 7.5192,3.36137143 5.83691429,3.36137143 C4.15405714,3.36137143 2.79005714,4.72537143 2.79005714,6.40765714 Z" id="Stroke-10" stroke="#050500" stroke-width="0.938"></path>
                    <path d="M4.58885714,6.40765714 C4.58885714,7.0968 5.14771429,7.65451429 5.83685714,7.65451429 C6.52542857,7.65451429 7.08428571,7.0968 7.08428571,6.40765714 C7.08428571,5.71851429 6.52542857,5.16022857 5.83685714,5.16022857 C5.14771429,5.16022857 4.58885714,5.71851429 4.58885714,6.40765714" id="Fill-12" fill="#000000"></path>
                    <path d="M5.45542857,4.15571429 C5.45542857,4.306 5.57714286,4.42714286 5.72628571,4.42714286 C5.876,4.42714286 5.99771429,4.306 5.99771429,4.15571429 C5.99771429,4.00657143 5.876,3.88485714 5.72628571,3.88485714 C5.57714286,3.88485714 5.45542857,4.00657143 5.45542857,4.15571429" id="Fill-14" fill="#000000"></path>
                    <path d="M4.3984,4.45188571 C4.3984,4.60217143 4.52068571,4.72331429 4.67097143,4.72331429 C4.82125714,4.72331429 4.94182857,4.60217143 4.94182857,4.45188571 C4.94182857,4.3016 4.82125714,4.18045714 4.67097143,4.18045714 C4.52068571,4.18045714 4.3984,4.3016 4.3984,4.45188571" id="Fill-16" fill="#000000"></path>
                    <path d="M3.60497143,5.24548571 C3.60497143,5.39691429 3.72725714,5.51805714 3.8764,5.51805714 C4.02668571,5.51805714 4.14782857,5.39691429 4.14782857,5.24548571 C4.14782857,5.09634286 4.02668571,4.97462857 3.8764,4.97462857 C3.72725714,4.97462857 3.60497143,5.09634286 3.60497143,5.24548571" id="Fill-18" fill="#000000"></path>
                    <path d="M3.35462857,6.37051429 C3.35462857,6.5208 3.47634286,6.64194286 3.62605714,6.64194286 C3.77634286,6.64194286 3.89805714,6.5208 3.89805714,6.37051429 C3.89805714,6.22022857 3.77634286,6.09908571 3.62605714,6.09908571 C3.47634286,6.09908571 3.35462857,6.22022857 3.35462857,6.37051429" id="Fill-20" fill="#000000"></path>
                    <path d="M3.62868571,7.4432 C3.62868571,7.59405714 3.7504,7.7152 3.90011429,7.7152 C4.0504,7.7152 4.17211429,7.59405714 4.17211429,7.4432 C4.17211429,7.29405714 4.0504,7.17234286 3.90011429,7.17234286 C3.7504,7.17234286 3.62868571,7.29405714 3.62868571,7.4432" id="Fill-22" fill="#000000"></path>
                    <path d="M4.40005714,8.23514286 C4.40005714,8.38542857 4.52177143,8.506 4.67148571,8.506 C4.82177143,8.506 4.94348571,8.38542857 4.94348571,8.23514286 C4.94348571,8.08485714 4.82177143,7.96371429 4.67148571,7.96371429 C4.52177143,7.96371429 4.40005714,8.08485714 4.40005714,8.23514286" id="Fill-24" fill="#000000"></path>
                    <path d="M5.46931429,8.5016 C5.46931429,8.65188571 5.59102857,8.77302857 5.74074286,8.77302857 C5.89102857,8.77302857 6.01274286,8.65188571 6.01274286,8.5016 C6.01274286,8.35131429 5.89102857,8.23017143 5.74074286,8.23017143 C5.59102857,8.23017143 5.46931429,8.35131429 5.46931429,8.5016" id="Fill-26" fill="#000000"></path>
                    <path d="M6.57297143,8.23514286 C6.57297143,8.38542857 6.69468571,8.506 6.8444,8.506 C6.99468571,8.506 7.1164,8.38542857 7.1164,8.23514286 C7.1164,8.08485714 6.99468571,7.96371429 6.8444,7.96371429 C6.69468571,7.96371429 6.57297143,8.08485714 6.57297143,8.23514286" id="Fill-28" fill="#000000"></path>
                    <path d="M7.3748,7.43251429 C7.3748,7.5828 7.49708571,7.70394286 7.64622857,7.70394286 C7.79651429,7.70394286 7.91765714,7.5828 7.91765714,7.43251429 C7.91765714,7.28222857 7.79651429,7.16108571 7.64622857,7.16108571 C7.49708571,7.16108571 7.3748,7.28222857 7.3748,7.43251429" id="Fill-30" fill="#000000"></path>
                    <path d="M7.72348571,6.3624 C7.72348571,6.51268571 7.8452,6.63382857 7.99434286,6.63382857 C8.14462857,6.63382857 8.26577143,6.51268571 8.26577143,6.3624 C8.26577143,6.21211429 8.14462857,6.09097143 7.99434286,6.09097143 C7.8452,6.09097143 7.72348571,6.21211429 7.72348571,6.3624" id="Fill-32" fill="#000000"></path>
                    <path d="M7.3748,5.22577143 C7.3748,5.37548571 7.49708571,5.49662857 7.64622857,5.49662857 C7.79651429,5.49662857 7.91765714,5.37548571 7.91765714,5.22577143 C7.91765714,5.07662857 7.79651429,4.95434286 7.64622857,4.95434286 C7.49708571,4.95434286 7.3748,5.07662857 7.3748,5.22577143" id="Fill-34" fill="#000000"></path>
                    <path d="M6.57297143,4.45702857 C6.57297143,4.60731429 6.69468571,4.72845714 6.8444,4.72845714 C6.99468571,4.72845714 7.1164,4.60731429 7.1164,4.45702857 C7.1164,4.30674286 6.99468571,4.1856 6.8444,4.1856 C6.69468571,4.1856 6.57297143,4.30674286 6.57297143,4.45702857" id="Fill-36" fill="#000000"></path>
                </g>
                <g id="Page-1-Copy" transform="translate(146.000000, 33.000000)">
                    <g id="Group-3" transform="translate(0.000000, 0.244514)">
                        <mask id="mask-12" fill="white">
                            <use xlink:href="#path-11"></use>
                        </mask>
                        <g id="Clip-2"></g>
                        <path d="M0,6.16314286 C0,9.38714286 2.61371429,12.0002857 5.83714286,12.0002857 C9.06,12.0002857 11.6731429,9.38714286 11.6731429,6.16314286 C11.6731429,2.93971429 9.06,0.327142857 5.83714286,0.327142857 C2.61371429,0.327142857 0,2.93971429 0,6.16314286" id="Fill-1" fill="#000000" mask="url(#mask-12)"></path>
                    </g>
                    <path d="M2.46754286,6.40765714 C2.46754286,8.2688 3.97554286,9.7768 5.83668571,9.7768 C7.69725714,9.7768 9.20582857,8.2688 9.20582857,6.40765714 C9.20582857,4.54708571 7.69725714,3.03851429 5.83668571,3.03851429 C3.97554286,3.03851429 2.46754286,4.54708571 2.46754286,6.40765714" id="Fill-4" fill="#B7B7B6"></path>
                    <path d="M2.46754286,6.40765714 C2.46754286,8.2688 3.97554286,9.7768 5.83668571,9.7768 C7.69725714,9.7768 9.20582857,8.2688 9.20582857,6.40765714 C9.20582857,4.54708571 7.69725714,3.03851429 5.83668571,3.03851429 C3.97554286,3.03851429 2.46754286,4.54708571 2.46754286,6.40765714 Z" id="Stroke-6" stroke="#050500" stroke-width="0.938"></path>
                    <path d="M2.79005714,6.40765714 C2.79005714,8.08994286 4.15405714,9.45337143 5.83691429,9.45337143 C7.5192,9.45337143 8.8832,8.08994286 8.8832,6.40765714 C8.8832,4.72537143 7.5192,3.36137143 5.83691429,3.36137143 C4.15405714,3.36137143 2.79005714,4.72537143 2.79005714,6.40765714" id="Fill-8" fill="#B7B7B6"></path>
                    <path d="M2.79005714,6.40765714 C2.79005714,8.08994286 4.15405714,9.45337143 5.83691429,9.45337143 C7.5192,9.45337143 8.8832,8.08994286 8.8832,6.40765714 C8.8832,4.72537143 7.5192,3.36137143 5.83691429,3.36137143 C4.15405714,3.36137143 2.79005714,4.72537143 2.79005714,6.40765714 Z" id="Stroke-10" stroke="#050500" stroke-width="0.938"></path>
                    <path d="M4.58885714,6.40765714 C4.58885714,7.0968 5.14771429,7.65451429 5.83685714,7.65451429 C6.52542857,7.65451429 7.08428571,7.0968 7.08428571,6.40765714 C7.08428571,5.71851429 6.52542857,5.16022857 5.83685714,5.16022857 C5.14771429,5.16022857 4.58885714,5.71851429 4.58885714,6.40765714" id="Fill-12" fill="#000000"></path>
                    <path d="M5.45542857,4.15571429 C5.45542857,4.306 5.57714286,4.42714286 5.72628571,4.42714286 C5.876,4.42714286 5.99771429,4.306 5.99771429,4.15571429 C5.99771429,4.00657143 5.876,3.88485714 5.72628571,3.88485714 C5.57714286,3.88485714 5.45542857,4.00657143 5.45542857,4.15571429" id="Fill-14" fill="#000000"></path>
                    <path d="M4.3984,4.45188571 C4.3984,4.60217143 4.52068571,4.72331429 4.67097143,4.72331429 C4.82125714,4.72331429 4.94182857,4.60217143 4.94182857,4.45188571 C4.94182857,4.3016 4.82125714,4.18045714 4.67097143,4.18045714 C4.52068571,4.18045714 4.3984,4.3016 4.3984,4.45188571" id="Fill-16" fill="#000000"></path>
                    <path d="M3.60497143,5.24548571 C3.60497143,5.39691429 3.72725714,5.51805714 3.8764,5.51805714 C4.02668571,5.51805714 4.14782857,5.39691429 4.14782857,5.24548571 C4.14782857,5.09634286 4.02668571,4.97462857 3.8764,4.97462857 C3.72725714,4.97462857 3.60497143,5.09634286 3.60497143,5.24548571" id="Fill-18" fill="#000000"></path>
                    <path d="M3.35462857,6.37051429 C3.35462857,6.5208 3.47634286,6.64194286 3.62605714,6.64194286 C3.77634286,6.64194286 3.89805714,6.5208 3.89805714,6.37051429 C3.89805714,6.22022857 3.77634286,6.09908571 3.62605714,6.09908571 C3.47634286,6.09908571 3.35462857,6.22022857 3.35462857,6.37051429" id="Fill-20" fill="#000000"></path>
                    <path d="M3.62868571,7.4432 C3.62868571,7.59405714 3.7504,7.7152 3.90011429,7.7152 C4.0504,7.7152 4.17211429,7.59405714 4.17211429,7.4432 C4.17211429,7.29405714 4.0504,7.17234286 3.90011429,7.17234286 C3.7504,7.17234286 3.62868571,7.29405714 3.62868571,7.4432" id="Fill-22" fill="#000000"></path>
                    <path d="M4.40005714,8.23514286 C4.40005714,8.38542857 4.52177143,8.506 4.67148571,8.506 C4.82177143,8.506 4.94348571,8.38542857 4.94348571,8.23514286 C4.94348571,8.08485714 4.82177143,7.96371429 4.67148571,7.96371429 C4.52177143,7.96371429 4.40005714,8.08485714 4.40005714,8.23514286" id="Fill-24" fill="#000000"></path>
                    <path d="M5.46931429,8.5016 C5.46931429,8.65188571 5.59102857,8.77302857 5.74074286,8.77302857 C5.89102857,8.77302857 6.01274286,8.65188571 6.01274286,8.5016 C6.01274286,8.35131429 5.89102857,8.23017143 5.74074286,8.23017143 C5.59102857,8.23017143 5.46931429,8.35131429 5.46931429,8.5016" id="Fill-26" fill="#000000"></path>
                    <path d="M6.57297143,8.23514286 C6.57297143,8.38542857 6.69468571,8.506 6.8444,8.506 C6.99468571,8.506 7.1164,8.38542857 7.1164,8.23514286 C7.1164,8.08485714 6.99468571,7.96371429 6.8444,7.96371429 C6.69468571,7.96371429 6.57297143,8.08485714 6.57297143,8.23514286" id="Fill-28" fill="#000000"></path>
                    <path d="M7.3748,7.43251429 C7.3748,7.5828 7.49708571,7.70394286 7.64622857,7.70394286 C7.79651429,7.70394286 7.91765714,7.5828 7.91765714,7.43251429 C7.91765714,7.28222857 7.79651429,7.16108571 7.64622857,7.16108571 C7.49708571,7.16108571 7.3748,7.28222857 7.3748,7.43251429" id="Fill-30" fill="#000000"></path>
                    <path d="M7.72348571,6.3624 C7.72348571,6.51268571 7.8452,6.63382857 7.99434286,6.63382857 C8.14462857,6.63382857 8.26577143,6.51268571 8.26577143,6.3624 C8.26577143,6.21211429 8.14462857,6.09097143 7.99434286,6.09097143 C7.8452,6.09097143 7.72348571,6.21211429 7.72348571,6.3624" id="Fill-32" fill="#000000"></path>
                    <path d="M7.3748,5.22577143 C7.3748,5.37548571 7.49708571,5.49662857 7.64622857,5.49662857 C7.79651429,5.49662857 7.91765714,5.37548571 7.91765714,5.22577143 C7.91765714,5.07662857 7.79651429,4.95434286 7.64622857,4.95434286 C7.49708571,4.95434286 7.3748,5.07662857 7.3748,5.22577143" id="Fill-34" fill="#000000"></path>
                    <path d="M6.57297143,4.45702857 C6.57297143,4.60731429 6.69468571,4.72845714 6.8444,4.72845714 C6.99468571,4.72845714 7.1164,4.60731429 7.1164,4.45702857 C7.1164,4.30674286 6.99468571,4.1856 6.8444,4.1856 C6.69468571,4.1856 6.57297143,4.30674286 6.57297143,4.45702857" id="Fill-36" fill="#000000"></path>
                </g>
                <g id="Page-1-Copy" transform="translate(160.000000, 33.000000)">
                    <g id="Group-3" transform="translate(0.000000, 0.244514)">
                        <mask id="mask-14" fill="white">
                            <use xlink:href="#path-13"></use>
                        </mask>
                        <g id="Clip-2"></g>
                        <path d="M0,6.16314286 C0,9.38714286 2.61371429,12.0002857 5.83714286,12.0002857 C9.06,12.0002857 11.6731429,9.38714286 11.6731429,6.16314286 C11.6731429,2.93971429 9.06,0.327142857 5.83714286,0.327142857 C2.61371429,0.327142857 0,2.93971429 0,6.16314286" id="Fill-1" fill="#000000" mask="url(#mask-14)"></path>
                    </g>
                    <path d="M2.46754286,6.40765714 C2.46754286,8.2688 3.97554286,9.7768 5.83668571,9.7768 C7.69725714,9.7768 9.20582857,8.2688 9.20582857,6.40765714 C9.20582857,4.54708571 7.69725714,3.03851429 5.83668571,3.03851429 C3.97554286,3.03851429 2.46754286,4.54708571 2.46754286,6.40765714" id="Fill-4" fill="#B7B7B6"></path>
                    <path d="M2.46754286,6.40765714 C2.46754286,8.2688 3.97554286,9.7768 5.83668571,9.7768 C7.69725714,9.7768 9.20582857,8.2688 9.20582857,6.40765714 C9.20582857,4.54708571 7.69725714,3.03851429 5.83668571,3.03851429 C3.97554286,3.03851429 2.46754286,4.54708571 2.46754286,6.40765714 Z" id="Stroke-6" stroke="#050500" stroke-width="0.938"></path>
                    <path d="M2.79005714,6.40765714 C2.79005714,8.08994286 4.15405714,9.45337143 5.83691429,9.45337143 C7.5192,9.45337143 8.8832,8.08994286 8.8832,6.40765714 C8.8832,4.72537143 7.5192,3.36137143 5.83691429,3.36137143 C4.15405714,3.36137143 2.79005714,4.72537143 2.79005714,6.40765714" id="Fill-8" fill="#B7B7B6"></path>
                    <path d="M2.79005714,6.40765714 C2.79005714,8.08994286 4.15405714,9.45337143 5.83691429,9.45337143 C7.5192,9.45337143 8.8832,8.08994286 8.8832,6.40765714 C8.8832,4.72537143 7.5192,3.36137143 5.83691429,3.36137143 C4.15405714,3.36137143 2.79005714,4.72537143 2.79005714,6.40765714 Z" id="Stroke-10" stroke="#050500" stroke-width="0.938"></path>
                    <path d="M4.58885714,6.40765714 C4.58885714,7.0968 5.14771429,7.65451429 5.83685714,7.65451429 C6.52542857,7.65451429 7.08428571,7.0968 7.08428571,6.40765714 C7.08428571,5.71851429 6.52542857,5.16022857 5.83685714,5.16022857 C5.14771429,5.16022857 4.58885714,5.71851429 4.58885714,6.40765714" id="Fill-12" fill="#000000"></path>
                    <path d="M5.45542857,4.15571429 C5.45542857,4.306 5.57714286,4.42714286 5.72628571,4.42714286 C5.876,4.42714286 5.99771429,4.306 5.99771429,4.15571429 C5.99771429,4.00657143 5.876,3.88485714 5.72628571,3.88485714 C5.57714286,3.88485714 5.45542857,4.00657143 5.45542857,4.15571429" id="Fill-14" fill="#000000"></path>
                    <path d="M4.3984,4.45188571 C4.3984,4.60217143 4.52068571,4.72331429 4.67097143,4.72331429 C4.82125714,4.72331429 4.94182857,4.60217143 4.94182857,4.45188571 C4.94182857,4.3016 4.82125714,4.18045714 4.67097143,4.18045714 C4.52068571,4.18045714 4.3984,4.3016 4.3984,4.45188571" id="Fill-16" fill="#000000"></path>
                    <path d="M3.60497143,5.24548571 C3.60497143,5.39691429 3.72725714,5.51805714 3.8764,5.51805714 C4.02668571,5.51805714 4.14782857,5.39691429 4.14782857,5.24548571 C4.14782857,5.09634286 4.02668571,4.97462857 3.8764,4.97462857 C3.72725714,4.97462857 3.60497143,5.09634286 3.60497143,5.24548571" id="Fill-18" fill="#000000"></path>
                    <path d="M3.35462857,6.37051429 C3.35462857,6.5208 3.47634286,6.64194286 3.62605714,6.64194286 C3.77634286,6.64194286 3.89805714,6.5208 3.89805714,6.37051429 C3.89805714,6.22022857 3.77634286,6.09908571 3.62605714,6.09908571 C3.47634286,6.09908571 3.35462857,6.22022857 3.35462857,6.37051429" id="Fill-20" fill="#000000"></path>
                    <path d="M3.62868571,7.4432 C3.62868571,7.59405714 3.7504,7.7152 3.90011429,7.7152 C4.0504,7.7152 4.17211429,7.59405714 4.17211429,7.4432 C4.17211429,7.29405714 4.0504,7.17234286 3.90011429,7.17234286 C3.7504,7.17234286 3.62868571,7.29405714 3.62868571,7.4432" id="Fill-22" fill="#000000"></path>
                    <path d="M4.40005714,8.23514286 C4.40005714,8.38542857 4.52177143,8.506 4.67148571,8.506 C4.82177143,8.506 4.94348571,8.38542857 4.94348571,8.23514286 C4.94348571,8.08485714 4.82177143,7.96371429 4.67148571,7.96371429 C4.52177143,7.96371429 4.40005714,8.08485714 4.40005714,8.23514286" id="Fill-24" fill="#000000"></path>
                    <path d="M5.46931429,8.5016 C5.46931429,8.65188571 5.59102857,8.77302857 5.74074286,8.77302857 C5.89102857,8.77302857 6.01274286,8.65188571 6.01274286,8.5016 C6.01274286,8.35131429 5.89102857,8.23017143 5.74074286,8.23017143 C5.59102857,8.23017143 5.46931429,8.35131429 5.46931429,8.5016" id="Fill-26" fill="#000000"></path>
                    <path d="M6.57297143,8.23514286 C6.57297143,8.38542857 6.69468571,8.506 6.8444,8.506 C6.99468571,8.506 7.1164,8.38542857 7.1164,8.23514286 C7.1164,8.08485714 6.99468571,7.96371429 6.8444,7.96371429 C6.69468571,7.96371429 6.57297143,8.08485714 6.57297143,8.23514286" id="Fill-28" fill="#000000"></path>
                    <path d="M7.3748,7.43251429 C7.3748,7.5828 7.49708571,7.70394286 7.64622857,7.70394286 C7.79651429,7.70394286 7.91765714,7.5828 7.91765714,7.43251429 C7.91765714,7.28222857 7.79651429,7.16108571 7.64622857,7.16108571 C7.49708571,7.16108571 7.3748,7.28222857 7.3748,7.43251429" id="Fill-30" fill="#000000"></path>
                    <path d="M7.72348571,6.3624 C7.72348571,6.51268571 7.8452,6.63382857 7.99434286,6.63382857 C8.14462857,6.63382857 8.26577143,6.51268571 8.26577143,6.3624 C8.26577143,6.21211429 8.14462857,6.09097143 7.99434286,6.09097143 C7.8452,6.09097143 7.72348571,6.21211429 7.72348571,6.3624" id="Fill-32" fill="#000000"></path>
                    <path d="M7.3748,5.22577143 C7.3748,5.37548571 7.49708571,5.49662857 7.64622857,5.49662857 C7.79651429,5.49662857 7.91765714,5.37548571 7.91765714,5.22577143 C7.91765714,5.07662857 7.79651429,4.95434286 7.64622857,4.95434286 C7.49708571,4.95434286 7.3748,5.07662857 7.3748,5.22577143" id="Fill-34" fill="#000000"></path>
                    <path d="M6.57297143,4.45702857 C6.57297143,4.60731429 6.69468571,4.72845714 6.8444,4.72845714 C6.99468571,4.72845714 7.1164,4.60731429 7.1164,4.45702857 C7.1164,4.30674286 6.99468571,4.1856 6.8444,4.1856 C6.69468571,4.1856 6.57297143,4.30674286 6.57297143,4.45702857" id="Fill-36" fill="#000000"></path>
                </g>
                <g id="Path-6">
                    <use fill="#70797C" fill-rule="evenodd" xlink:href="#path-15"></use>
                    <path stroke="#559079" stroke-width="1" d="M52.5,8.5 L52.5,12.5 L43.106033,12.5 L46.626033,8.5 L52.5,8.5 Z"></path>
                </g>
                <g id="Rectangle-32">
                    <use fill="#627275" fill-rule="evenodd" xlink:href="#path-16"></use>
                    <rect stroke="#3D625B" stroke-width="1" x="49.5" y="18.5" width="3" height="5"></rect>
                </g>
                <rect id="Rectangle-32-Copy" stroke="#1D9565" x="51.5" y="28.5" width="1" height="1"></rect>
                <path d="M42.2800002,8 C41.0654228,8.80950599 38,12.2793633 38,12.2793633" id="Path-7" stroke="#4F695F" stroke-width="2" fill="#FFFFFF"></path>
                <path d="M25.6103516,15.9749106 C25.7620281,15.0524722 24.5897208,15.0408696 24.9123535,15.0012778 C25.2349862,14.961686 26.5852051,15.8552817 26.5852051,15.8552817 L24.6989746,19.5671958 L24,19.5498618 C24,19.5498618 25.458675,16.897349 25.6103516,15.9749106 Z" id="Path-8" stroke="#3D625B" stroke-width="2"></path>
                <g id="Rectangle-35">
                    <use fill="#D8D8D8" fill-rule="evenodd" xlink:href="#path-17"></use>
                    <rect stroke="#333333" stroke-width="1" x="25.5" y="16.5" width="1" height="1"></rect>
                </g>
                <g id="Rectangle-36">
                    <use fill="url(#linearGradient-18)" fill-rule="evenodd" xlink:href="#path-19"></use>
                    <path stroke="#4D6C66" stroke-width="1" d="M29.1891194,16.5 L36.5,16.5 L36.5,21.5 L27.6739679,21.5 L29.1891194,16.5 Z"></path>
                </g>
                <path d="M5,34.7625438 C5,34.7625438 12.0927734,25.6507274 20.8227539,35.7864696" id="Path-5" stroke="#A0DCC5"></path>
                <rect id="Rectangle-37" fill="#32AA7A" x="24" y="34" width="13" height="2"></rect>
                <rect id="Rectangle-37-Copy-2" fill="#32AA7A" x="41" y="32" width="16" height="1"></rect>
                <rect id="Rectangle-37-Copy" fill="#3F6958" x="23" y="40" width="2" height="1"></rect>
                <g id="Rectangle-38">
                    <use fill="#1D9565" fill-rule="evenodd" xlink:href="#path-20"></use>
                    <rect stroke="#1D9565" stroke-width="1" x="35.5" y="29.5" width="1" height="1"></rect>
                </g>
                <rect id="Rectangle-39" stroke="#6DD6AD" opacity="0.865438433" x="38.5" y="16.5" width="1" height="17"></rect>
                <polygon id="Rectangle-42" fill="#222222" points="61 30 174 30 174 34 144.5247 34 121.181119 32.956543 61 33"></polygon>
            </g>
        </g>
    </g>
</svg>